<?xml version="1.0" standalone="no"?>
<!DOCTYPE svg PUBLIC "-//W3C//DTD SVG 20010904//EN"
 "http://www.w3.org/TR/2001/REC-SVG-20010904/DTD/svg10.dtd">
<svg version="1.0" xmlns="http://www.w3.org/2000/svg"
 width="1588.000000pt" height="1270.000000pt" viewBox="0 0 1588.000000 1270.000000"
 preserveAspectRatio="xMidYMid meet">

<g transform="translate(0.000000,1270.000000) scale(0.100000,-0.100000)"
fill="#000000" stroke="none">
<path d="M7585 12329 c-1294 -76 -2521 -570 -3525 -1417 -148 -126 -529 -504
-657 -652 -1089 -1270 -1598 -2918 -1412 -4575 114 -1022 478 -1974 1072
-2810 348 -488 802 -954 1282 -1314 1277 -957 2846 -1360 4440 -1140 1075 147
2115 607 2970 1312 1065 879 1791 2095 2060 3450 74 373 104 681 110 1097 4
302 -2 438 -31 710 -235 2252 -1740 4184 -3877 4979 -758 282 -1611 408 -2432
360z m-1690 -636 c218 -381 497 -863 552 -956 34 -60 63 -112 63 -116 0 -5
-42 -23 -92 -41 -473 -167 -960 -449 -1368 -789 -47 -39 -87 -71 -90 -71 -3 1
-79 130 -169 288 -91 158 -245 426 -343 595 -143 247 -176 312 -167 323 6 8
77 63 158 123 375 278 771 507 1206 695 83 36 157 65 166 66 10 0 41 -43 84
-117z m4317 61 c345 -145 656 -313 978 -527 144 -95 387 -274 409 -301 11 -13
-9 -53 -142 -283 -85 -147 -239 -414 -342 -593 -103 -179 -189 -327 -191 -329
-2 -2 -16 7 -32 20 -376 308 -608 463 -955 635 -166 82 -419 189 -530 224 -22
7 -36 17 -34 24 4 11 168 296 528 918 85 148 159 268 166 268 6 0 71 -25 145
-56z m-2565 -155 c93 -35 116 -144 45 -212 -78 -75 -212 -16 -212 93 0 46 29
92 71 113 40 20 58 21 96 6z m693 -17 c80 -58 72 -175 -15 -216 -43 -21 -73
-20 -114 2 -74 40 -91 135 -34 194 15 17 37 34 48 39 28 12 85 3 115 -19z
m-649 -338 c115 -110 -25 -284 -159 -196 -49 32 -66 106 -37 163 38 73 137 89
196 33z m634 20 c86 -41 96 -152 20 -212 -42 -33 -79 -36 -129 -12 -122 58
-82 237 52 240 13 0 39 -7 57 -16z m-660 -328 c40 -17 68 -65 68 -118 0 -68
-54 -121 -123 -120 -131 2 -178 165 -67 232 38 24 75 25 122 6z m676 -9 c44
-29 65 -87 50 -138 -29 -96 -151 -124 -215 -49 -95 114 42 270 165 187z m-848
-834 c3 -5 8 -44 12 -89 l7 -81 -89 -12 c-204 -28 -474 -94 -662 -162 -46 -16
-87 -26 -91 -22 -4 4 -20 41 -35 82 -23 60 -25 75 -14 82 57 37 458 146 676
183 149 26 189 30 196 19z m1172 -34 c203 -40 467 -113 589 -164 l34 -15 -30
-80 c-17 -44 -35 -80 -40 -80 -5 0 -62 18 -126 40 -164 56 -402 114 -570 141
l-144 22 6 31 c3 17 8 57 12 89 l6 58 57 -6 c31 -4 124 -20 206 -36z m-2811
-670 c26 -39 44 -74 40 -78 -5 -5 -36 -28 -69 -51 -138 -100 -269 -213 -418
-360 l-158 -157 -62 55 c-34 31 -62 59 -62 64 0 15 139 160 253 265 149 136
398 333 421 333 3 0 28 -32 55 -71z m4505 -134 c107 -89 337 -310 383 -367
l29 -37 -47 -43 c-89 -82 -64 -91 -252 94 -180 176 -298 276 -481 404 -1 2 20
37 49 78 l52 75 85 -62 c47 -34 129 -98 182 -142z m-6618 20 c97 -51 87 -199
-16 -233 -86 -29 -165 29 -165 118 0 98 96 158 181 115z m7964 -319 c98 -41
98 -184 0 -230 -124 -59 -237 100 -143 202 41 43 85 52 143 28z m-7394 -11
c37 -19 69 -70 69 -108 0 -108 -128 -169 -209 -101 -114 96 7 277 140 209z
m-911 -241 c136 -55 82 -260 -64 -241 -62 9 -106 61 -106 126 0 59 32 105 83
120 44 13 42 13 87 -5z m9234 -15 c60 -52 61 -126 1 -186 -27 -27 -41 -33 -74
-33 -82 0 -131 49 -131 130 0 52 13 76 53 100 50 31 109 26 151 -11z m-8638
-325 c53 -35 67 -123 29 -181 -22 -33 -80 -56 -124 -49 -70 11 -123 94 -101
160 27 83 123 117 196 70z m688 -295 l75 -40 -53 -107 c-93 -186 -197 -466
-246 -659 -6 -24 -13 -43 -16 -43 -2 0 -42 9 -88 21 l-84 21 25 91 c33 122 85
277 135 401 51 129 159 356 169 356 4 0 41 -18 83 -41z m6660 -76 c72 -144
155 -356 209 -533 59 -192 62 -206 42 -214 -19 -7 -143 -36 -155 -36 -4 0 -11
17 -15 37 -24 131 -137 442 -235 650 l-58 122 71 40 c40 22 75 40 79 40 4 1
32 -47 62 -106z m-7811 -759 c-67 -359 -78 -485 -78 -884 1 -370 9 -490 56
-755 10 -60 19 -118 19 -127 0 -17 -39 -18 -689 -18 l-689 0 -6 28 c-9 43 -34
255 -48 402 -16 177 -16 775 1 945 14 150 39 357 47 398 l6 27 691 -2 c507 -2
691 -6 690 -14z m10201 -1 c7 -23 31 -222 48 -388 17 -174 17 -828 0 -995 -17
-166 -42 -361 -48 -382 -5 -17 -47 -18 -695 -18 -545 0 -689 3 -689 13 0 6 9
64 20 127 85 484 85 1036 0 1520 -11 63 -20 121 -20 128 0 9 144 12 689 12
648 0 690 -1 695 -17z m-9394 -910 c1 -184 43 -549 84 -733 l22 -100 -30 -9
c-88 -27 -138 -34 -146 -20 -11 17 -56 254 -75 389 -14 110 -35 376 -35 461
l0 49 90 0 90 0 0 -37z m7380 -46 c0 -108 -18 -323 -40 -478 -19 -128 -62
-345 -71 -354 -8 -7 -169 37 -169 47 0 4 11 64 25 131 42 208 75 500 75 663
l0 64 90 0 90 0 0 -73z m-6748 -1959 c45 -65 125 -171 178 -237 l98 -119 -63
-56 c-35 -31 -67 -56 -72 -56 -19 0 -210 245 -320 410 -80 119 -193 313 -193
329 0 6 35 28 77 49 l77 39 69 -121 c38 -67 105 -174 149 -238z m6235 315 c40
-21 73 -43 73 -48 0 -15 -123 -225 -193 -330 -76 -113 -161 -226 -250 -333
l-69 -83 -69 62 -69 61 46 52 c117 130 325 429 419 604 15 28 31 52 34 52 3 0
39 -17 78 -37z m-7213 -97 c51 -21 76 -60 76 -118 0 -43 -5 -55 -33 -83 -43
-43 -79 -52 -131 -34 -106 37 -114 190 -13 234 41 18 60 18 101 1z m8590 -290
c71 -29 99 -99 68 -169 -42 -95 -168 -103 -222 -14 -39 64 -16 142 53 176 50
25 57 25 101 7z m-9154 -41 c48 -25 70 -62 70 -117 0 -43 -5 -55 -33 -83 -61
-61 -155 -52 -198 19 -65 106 52 237 161 181z m8728 -69 c86 -44 102 -151 31
-210 -111 -94 -265 37 -189 162 33 54 104 76 158 48z m-8257 -59 c123 -82 39
-266 -103 -226 -55 15 -88 60 -88 119 0 104 106 164 191 107z m7810 -90 c69
-46 73 -147 8 -201 -24 -20 -41 -26 -81 -26 -43 0 -54 4 -83 33 -43 43 -52 79
-34 131 28 79 120 110 190 63z m-7371 -32 c36 -19 60 -62 60 -110 0 -76 -51
-125 -130 -125 -87 0 -148 106 -106 184 33 61 112 84 176 51z m-544 -346 c39
-36 49 -83 29 -134 -29 -77 -113 -107 -182 -65 -59 36 -78 101 -47 166 34 72
140 90 200 33z m2243 -312 c143 -91 332 -190 481 -253 74 -31 136 -58 138 -59
6 -5 -50 -155 -60 -161 -11 -7 -201 72 -348 146 -193 97 -450 252 -450 272 0
5 21 41 47 78 l48 69 25 -16 c14 -10 67 -44 119 -76z m3995 18 c25 -36 46 -70
46 -74 0 -10 -143 -104 -255 -168 -155 -90 -504 -253 -539 -253 -10 0 -66 133
-66 157 0 5 33 22 73 38 174 66 598 293 657 351 24 24 37 16 84 -51z m-4986
-404 c390 -331 898 -624 1370 -791 53 -19 92 -38 90 -45 -8 -32 -683 -1185
-694 -1185 -7 0 -77 27 -156 61 -336 143 -648 311 -953 514 -167 111 -401 281
-424 309 -9 11 18 65 132 262 79 137 230 398 335 580 105 181 194 338 198 347
3 9 9 17 13 17 4 0 44 -31 89 -69z m6152 -408 c464 -805 414 -712 393 -735
-27 -30 -249 -192 -403 -295 -259 -173 -524 -321 -787 -442 -162 -75 -320
-141 -338 -141 -9 0 -695 1177 -695 1193 0 3 17 11 38 17 112 36 368 144 531
225 345 172 649 374 950 632 14 12 28 22 31 23 3 0 129 -215 280 -477z m-3260
254 c146 0 302 5 347 10 95 10 88 17 99 -94 8 -85 20 -78 -151 -92 -182 -16
-731 -1 -749 20 -4 4 13 146 19 165 2 7 29 7 86 1 46 -5 203 -10 349 -10z
m197 -1081 c28 -31 33 -43 33 -87 0 -44 -4 -55 -33 -84 -61 -61 -155 -52 -198
19 -37 61 -20 133 41 174 52 35 113 26 157 -22z"/>
</g>
</svg>
