<?xml version="1.0" standalone="no"?>
<!DOCTYPE svg PUBLIC "-//W3C//DTD SVG 20010904//EN"
 "http://www.w3.org/TR/2001/REC-SVG-20010904/DTD/svg10.dtd">
<svg version="1.0" xmlns="http://www.w3.org/2000/svg"
 width="1588.000000pt" height="1270.000000pt" viewBox="0 0 1588.000000 1270.000000"
 preserveAspectRatio="xMidYMid meet">

<g transform="translate(0.000000,1270.000000) scale(0.100000,-0.100000)"
fill="#000000" stroke="none">
<path d="M7635 12329 c-1314 -67 -2533 -548 -3560 -1405 -235 -196 -595 -564
-797 -814 -434 -536 -790 -1184 -1011 -1840 -363 -1075 -412 -2259 -141 -3355
237 -955 695 -1823 1344 -2549 1377 -1539 3423 -2258 5465 -1920 930 154 1842
546 2598 1116 1347 1015 2194 2518 2362 4194 79 782 -1 1594 -231 2347 -527
1729 -1818 3132 -3501 3806 -799 320 -1666 464 -2528 420z m-1664 -766 c78
-137 172 -300 209 -363 37 -63 120 -207 185 -320 65 -113 126 -219 136 -236
l19 -31 -92 -32 c-331 -115 -747 -329 -1043 -536 -131 -92 -298 -222 -371
-287 -38 -36 -54 -45 -61 -35 -5 6 -47 77 -93 157 -46 80 -104 181 -130 225
-26 44 -109 188 -185 320 -76 132 -171 296 -211 365 l-73 125 22 18 c195 160
499 365 777 524 217 124 740 370 761 357 4 -2 71 -115 150 -251z m4221 201
c328 -137 690 -331 983 -526 174 -116 434 -309 435 -322 0 -5 -39 -77 -87
-160 -103 -179 -509 -882 -565 -979 l-39 -68 -67 59 c-166 146 -452 348 -664
471 -218 125 -508 259 -735 340 -88 32 -92 34 -81 55 6 11 61 107 121 211 60
105 176 305 256 445 243 421 306 530 308 530 1 0 61 -25 135 -56z m-2507 -185
c49 -44 64 -96 40 -149 -23 -50 -69 -80 -125 -80 -36 0 -48 6 -81 39 -35 34
-39 44 -39 88 0 55 17 85 64 114 48 29 99 25 141 -12z m638 19 c43 -22 77 -75
77 -120 0 -35 -32 -90 -64 -109 -18 -11 -50 -19 -75 -19 -37 0 -49 6 -82 39
-35 34 -39 44 -39 88 0 28 7 58 16 72 37 53 117 76 167 49z m-648 -338 c17
-11 40 -38 50 -60 23 -51 10 -102 -35 -145 -27 -26 -39 -30 -86 -30 -51 0 -58
3 -90 37 -29 32 -34 45 -34 85 1 27 6 58 14 71 32 59 120 80 181 42z m663 0
c34 -21 62 -72 62 -112 0 -13 -8 -39 -18 -57 -43 -80 -149 -93 -209 -27 -28
30 -33 43 -33 85 0 78 51 129 130 130 19 1 50 -8 68 -19z m-653 -334 c33 -22
58 -82 51 -122 -15 -77 -98 -128 -169 -105 -54 18 -87 63 -87 117 0 117 107
174 205 110z m668 -9 c67 -62 57 -151 -22 -204 -84 -57 -191 8 -191 116 0 37
6 49 39 82 35 35 44 39 89 39 43 0 56 -5 85 -33z m-859 -834 c3 -10 8 -50 12
-89 l6 -70 -138 -23 c-184 -29 -390 -79 -564 -136 -78 -26 -143 -45 -144 -43
-2 2 -17 39 -34 83 l-31 80 42 18 c85 37 369 117 538 151 259 52 305 56 313
29z m1072 -3 c163 -28 416 -92 573 -144 71 -24 134 -47 139 -50 15 -9 -52
-172 -69 -167 -8 2 -75 23 -148 48 -167 55 -333 96 -519 128 -79 14 -148 25
-154 25 -10 0 -4 120 8 163 7 22 25 22 170 -3z m-2716 -686 c29 -42 48 -79 44
-83 -5 -5 -44 -33 -86 -64 -132 -96 -308 -250 -437 -381 l-124 -125 -63 56
c-35 30 -64 61 -64 67 0 13 271 283 370 368 49 42 298 235 306 238 1 0 25 -34
54 -76z m4374 -33 c72 -54 181 -144 241 -198 122 -111 307 -302 303 -313 -2
-4 -31 -32 -66 -62 l-63 -54 -157 155 c-143 143 -352 321 -453 388 -22 14 -39
31 -37 37 4 14 92 146 97 146 3 0 64 -45 135 -99z m-6473 -94 c18 -12 39 -34
46 -47 30 -60 3 -144 -56 -175 -61 -31 -136 -11 -171 48 -71 116 68 250 181
174z m7960 -312 c117 -61 71 -245 -61 -245 -68 0 -130 61 -130 128 0 98 104
161 191 117z m-7387 -16 c80 -63 70 -181 -18 -223 -43 -20 -69 -20 -113 1 -52
24 -75 67 -70 127 4 42 10 55 41 83 30 28 43 33 85 33 34 0 56 -6 75 -21z
m8302 -237 c65 -47 70 -144 10 -199 -83 -76 -216 -16 -216 97 0 71 73 135 143
125 22 -3 50 -13 63 -23z m-9219 1 c52 -24 75 -67 70 -127 -11 -124 -164 -161
-234 -57 -42 62 -19 147 48 183 42 22 71 23 116 1z m574 -328 c118 -62 71
-245 -63 -245 -45 0 -78 19 -105 59 -74 110 49 247 168 186z m704 -305 l73
-41 -48 -97 c-98 -197 -183 -424 -245 -649 -10 -35 -23 -63 -29 -63 -17 0
-157 38 -163 43 -7 8 53 216 103 353 79 221 204 494 225 494 5 0 43 -18 84
-40z m6659 -77 c98 -198 251 -618 258 -715 3 -31 2 -31 -67 -49 -105 -28 -100
-30 -125 64 -52 191 -134 412 -227 610 -31 64 -54 119 -52 121 8 7 144 75 151
76 4 0 32 -48 62 -107z m-7808 -760 c-11 -36 -47 -268 -62 -401 -22 -194 -29
-607 -15 -799 16 -207 54 -489 77 -566 5 -16 -31 -17 -693 -15 l-698 3 -12 80
c-47 314 -67 867 -44 1201 12 168 48 492 57 506 3 5 318 8 700 8 658 0 695 -1
690 -17z m10199 -5 c3 -13 12 -77 20 -143 60 -468 59 -1001 -3 -1496 l-17
-134 -699 -3 -698 -2 6 24 c3 14 15 78 26 143 68 412 77 882 24 1293 -15 116
-40 276 -51 317 l-5 23 696 0 696 0 5 -22z m-9395 -910 c1 -183 42 -542 84
-729 16 -69 19 -102 12 -105 -6 -2 -46 -12 -89 -23 -57 -14 -79 -16 -83 -8 -2
7 -15 68 -29 137 -39 191 -65 407 -72 598 l-6 172 91 0 92 0 0 -42z m7377
-115 c-4 -82 -9 -170 -12 -198 -20 -176 -29 -237 -57 -382 -17 -89 -34 -167
-38 -173 -5 -8 -30 -5 -91 10 -46 12 -85 23 -87 24 -1 2 7 41 18 87 43 182 77
461 82 664 1 55 4 103 6 108 2 4 44 7 94 7 l91 0 -6 -147z m-6922 -1600 c79
-152 319 -494 426 -608 l29 -31 -69 -62 -70 -62 -62 72 c-80 93 -211 269 -282
379 -69 108 -180 299 -175 304 6 6 153 85 158 85 3 0 23 -35 45 -77z m6485
-18 c0 -15 -123 -225 -193 -330 -77 -115 -162 -228 -250 -332 -78 -93 -66 -93
-156 -11 l-53 47 85 103 c141 172 280 377 378 555 l34 62 77 -42 c43 -23 78
-47 78 -52z m-7280 -50 c67 -35 92 -120 53 -186 -49 -83 -184 -75 -226 14 -22
46 -21 72 5 118 35 62 107 86 168 54z m8617 -307 c53 -49 64 -96 36 -155 -43
-91 -176 -98 -227 -13 -23 41 -21 111 6 145 45 58 136 69 185 23z m-9171 -28
c45 -28 71 -95 55 -143 -6 -18 -25 -47 -42 -63 -26 -25 -38 -29 -84 -29 -46 0
-58 4 -84 29 -64 61 -62 137 5 196 42 37 99 41 150 10z m8707 -59 c59 -23 93
-93 76 -156 -18 -65 -90 -107 -153 -91 -39 10 -85 55 -97 96 -10 33 -9 44 9
82 33 68 97 95 165 69z m-8232 -80 c34 -33 39 -45 39 -83 0 -120 -136 -180
-219 -97 -83 83 -23 219 97 219 38 0 50 -5 83 -39z m7802 -84 c46 -43 56 -92
31 -144 -21 -43 -75 -83 -111 -83 -72 0 -133 62 -133 135 1 77 52 125 132 125
39 0 52 -5 81 -33z m-7376 -23 c36 -23 56 -62 56 -109 0 -56 -24 -92 -79 -116
-37 -17 -50 -18 -84 -9 -68 18 -112 97 -91 163 28 83 124 118 198 71z m-576
-327 c113 -75 68 -237 -66 -237 -75 0 -128 54 -128 132 0 45 23 82 66 108 42
26 86 25 128 -3z m2199 -287 c148 -99 395 -230 585 -310 55 -23 102 -44 104
-46 4 -4 -49 -146 -60 -158 -28 -31 -562 239 -802 405 -14 10 92 161 106 153
7 -4 37 -24 67 -44z m4063 -23 c26 -40 47 -76 47 -79 0 -22 -384 -244 -560
-323 -219 -99 -239 -106 -249 -86 -14 25 -62 154 -59 156 2 1 30 12 63 25 175
68 467 220 620 324 44 29 82 54 85 55 3 0 26 -32 53 -72z m-4986 -404 c405
-345 940 -647 1451 -818 6 -2 12 -9 12 -14 0 -8 -634 -1114 -676 -1178 l-14
-22 -122 50 c-319 130 -707 339 -1023 551 -190 126 -411 293 -408 306 1 4 34
63 73 132 108 187 288 499 370 640 40 69 110 191 157 273 46 81 88 147 93 147
4 0 43 -30 87 -67z m5955 -65 c42 -73 149 -259 238 -413 308 -532 370 -642
370 -651 -1 -20 -370 -285 -557 -402 -194 -120 -368 -216 -557 -307 -164 -80
-436 -199 -441 -193 -1 2 -44 75 -95 163 -51 88 -125 216 -165 285 -160 276
-430 745 -433 751 -2 4 7 10 20 14 40 12 269 102 356 139 370 159 793 423
1097 685 39 33 75 60 80 60 6 1 45 -59 87 -131z m-3249 -89 c176 -10 496 -1
585 17 36 7 38 2 47 -103 l7 -80 -162 -13 c-157 -12 -526 -9 -688 7 l-64 6 6
56 c16 136 15 133 50 127 17 -3 115 -11 219 -17z m371 -1070 c42 -37 58 -85
45 -133 -10 -38 -57 -82 -95 -92 -85 -21 -177 66 -158 150 15 68 60 105 131
106 33 0 50 -7 77 -31z"/>
</g>
</svg>
