<?xml version="1.0" standalone="no"?>
<!DOCTYPE svg PUBLIC "-//W3C//DTD SVG 20010904//EN"
 "http://www.w3.org/TR/2001/REC-SVG-20010904/DTD/svg10.dtd">
<svg version="1.0" xmlns="http://www.w3.org/2000/svg"
 width="1588.000000pt" height="1270.000000pt" viewBox="0 0 1588.000000 1270.000000"
 preserveAspectRatio="xMidYMid meet">

<g transform="translate(0.000000,1270.000000) scale(0.100000,-0.100000)"
fill="#000000" stroke="none">
<path d="M7625 12329 c-1184 -64 -2310 -469 -3255 -1172 -441 -328 -904 -789
-1231 -1227 -1005 -1344 -1393 -3044 -1078 -4715 186 -988 629 -1917 1295
-2720 138 -167 551 -580 719 -719 646 -537 1344 -917 2125 -1156 971 -297
2042 -337 3043 -114 1438 320 2715 1167 3575 2373 665 933 1053 2060 1100
3201 15 365 -8 821 -59 1160 -158 1049 -589 2035 -1246 2852 -1214 1509 -3068
2340 -4988 2237z m-1457 -1109 c182 -316 333 -582 337 -591 5 -12 -18 -24
-112 -59 -484 -177 -938 -442 -1349 -784 -43 -36 -81 -66 -84 -66 -3 0 -52 80
-108 178 -57 97 -213 366 -346 597 l-244 420 22 18 c155 131 508 371 746 507
293 168 774 389 796 366 6 -6 160 -270 342 -586z m4167 482 c250 -110 582
-293 832 -459 149 -99 409 -289 431 -316 14 -16 23 1 -386 -707 -68 -118 -161
-279 -206 -357 -44 -79 -85 -143 -90 -143 -4 0 -38 26 -75 59 -100 88 -342
268 -479 354 -274 174 -554 315 -827 416 -77 29 -148 56 -157 59 -14 6 14 60
174 337 105 182 251 436 326 565 74 129 146 252 158 272 l24 37 92 -38 c51
-22 134 -57 183 -79z m-2677 -106 c86 -45 101 -145 31 -212 -26 -25 -38 -29
-85 -29 -51 0 -58 3 -90 37 -29 32 -34 45 -34 87 0 95 97 159 178 117z m693
-22 c44 -42 56 -94 35 -142 -35 -77 -120 -104 -187 -59 -41 27 -59 60 -59 107
0 109 134 168 211 94z m-654 -338 c87 -95 -4 -244 -128 -207 -86 26 -120 133
-62 201 34 41 58 51 113 46 35 -3 51 -11 77 -40z m638 24 c17 -11 40 -38 50
-60 22 -50 10 -101 -33 -143 -78 -75 -212 -16 -212 93 0 47 18 80 59 107 42
28 93 29 136 3z m-665 -326 c39 -23 60 -65 60 -117 0 -117 -148 -167 -224 -76
-20 24 -26 41 -26 81 0 45 4 54 39 89 33 33 45 39 81 39 23 0 54 -7 70 -16z
m666 -3 c66 -40 80 -129 28 -190 -45 -54 -115 -62 -175 -20 -94 65 -41 229 73
229 24 0 56 -8 74 -19z m-842 -848 c3 -10 8 -50 12 -89 l6 -71 -113 -17 c-168
-25 -403 -81 -577 -138 -85 -27 -155 -48 -157 -46 -1 2 -16 39 -33 83 l-31 80
42 18 c85 37 369 117 538 151 259 52 305 56 313 29z m1131 -14 c158 -29 360
-81 512 -133 72 -24 136 -47 142 -50 8 -6 -6 -51 -49 -153 l-9 -21 -113 40
c-150 53 -389 114 -566 144 -79 13 -148 24 -154 24 -10 0 -4 121 9 164 6 21
42 19 228 -15z m-2771 -680 c26 -39 44 -74 40 -78 -5 -4 -47 -36 -94 -71 -144
-107 -300 -243 -429 -374 l-124 -125 -63 56 c-35 30 -64 61 -64 67 0 14 273
285 370 368 90 77 292 228 305 228 5 0 32 -32 59 -71z m4335 -1 c53 -39 150
-117 216 -173 127 -108 369 -350 363 -364 -2 -5 -32 -33 -67 -64 l-64 -56
-109 113 c-139 147 -393 365 -518 447 l-24 16 49 76 c28 42 52 77 54 77 2 0
47 -32 100 -72z m-6448 -113 c64 -34 87 -120 49 -183 -21 -34 -72 -62 -112
-62 -37 0 -90 34 -110 71 -23 42 -23 75 0 117 35 65 109 90 173 57z m7970
-320 c63 -33 87 -120 50 -181 -20 -33 -75 -64 -113 -64 -59 0 -128 69 -128
128 0 97 105 161 191 117z m-7394 -15 c92 -56 79 -187 -23 -226 -41 -16 -47
-16 -88 0 -50 19 -76 52 -83 106 -10 71 52 140 127 140 19 0 49 -9 67 -20z
m8268 -220 c8 0 30 -14 49 -31 60 -52 61 -126 1 -186 -97 -97 -264 24 -201
145 26 50 88 88 124 76 8 -2 20 -4 27 -4z m-9179 -19 c68 -31 94 -114 54 -178
-54 -89 -187 -80 -227 14 -28 68 1 139 67 167 46 19 57 19 106 -3z m573 -329
c37 -20 71 -73 71 -110 0 -39 -30 -90 -65 -112 -114 -70 -245 63 -175 178 35
58 108 77 169 44z m706 -302 l73 -41 -54 -109 c-89 -179 -179 -419 -239 -637
-10 -35 -23 -63 -29 -63 -17 0 -157 38 -163 44 -9 9 76 283 134 436 68 177
178 410 193 410 6 0 44 -18 85 -40z m6658 -77 c99 -198 252 -619 259 -715 3
-31 2 -31 -67 -49 -38 -10 -77 -19 -85 -19 -12 0 -25 32 -49 118 -56 194 -156
455 -241 622 -17 33 -28 65 -25 71 6 9 133 78 147 79 4 0 32 -48 61 -107z
m-7813 -762 c0 -10 -7 -54 -15 -97 -39 -208 -56 -393 -62 -675 -8 -374 3 -509
74 -971 l6 -38 -691 0 c-380 0 -693 3 -695 8 -8 12 -36 248 -52 432 -29 347
-17 850 31 1220 9 69 18 128 21 133 2 4 314 7 694 7 669 0 689 -1 689 -19z
m10205 -3 c31 -134 65 -597 65 -878 0 -281 -34 -744 -65 -877 l-5 -23 -696 0
c-658 0 -695 1 -690 18 12 38 46 256 62 397 23 189 26 749 6 925 -14 121 -59
413 -68 443 -5 16 32 17 690 17 l696 0 5 -22z m-9395 -910 c1 -183 42 -542 84
-729 16 -69 19 -102 12 -105 -6 -2 -46 -12 -89 -23 -57 -14 -79 -16 -82 -8 -2
7 -15 66 -29 132 -46 225 -76 489 -76 673 l0 102 90 0 90 0 0 -42z m7376 -115
c-7 -163 -19 -286 -41 -438 -17 -107 -60 -313 -67 -321 -3 -2 -44 5 -92 18
-79 19 -87 24 -82 42 40 141 84 441 92 620 2 67 7 145 10 174 l5 52 91 0 91 0
-7 -147z m-6942 -1560 c67 -142 279 -453 418 -614 26 -30 48 -60 48 -65 0 -5
-29 -35 -64 -67 l-65 -57 -62 72 c-80 93 -211 269 -282 379 -68 106 -180 299
-175 303 8 8 154 86 159 86 3 0 13 -17 23 -37z m6506 -58 c0 -15 -122 -224
-193 -330 -69 -103 -197 -273 -270 -357 -56 -65 -43 -67 -141 19 l-47 42 103
128 c117 144 258 352 339 496 l53 96 78 -42 c43 -23 78 -47 78 -52z m-7285
-49 c45 -19 75 -69 75 -124 0 -34 -6 -49 -33 -78 -63 -69 -166 -54 -208 32
-31 65 -11 125 54 164 38 24 66 25 112 6z m8582 -287 c72 -27 105 -99 77 -168
-38 -95 -158 -108 -223 -25 -44 56 -15 160 52 189 39 17 57 18 94 4z m-9110
-73 c28 -30 33 -43 33 -85 0 -72 -56 -131 -125 -131 -104 0 -165 131 -98 210
34 41 58 51 113 46 35 -3 51 -11 77 -40z m8693 -41 c96 -49 96 -181 0 -230
-84 -43 -180 19 -180 116 0 97 95 158 180 114z m-8269 -50 c93 -49 89 -184 -6
-229 -50 -24 -99 -14 -141 28 -42 42 -51 78 -33 130 26 74 110 107 180 71z
m7808 -89 c63 -33 86 -127 45 -183 -80 -109 -234 -58 -234 78 0 35 6 48 39 80
32 33 45 39 80 39 23 0 55 -7 70 -14z m-7351 -45 c48 -26 67 -113 37 -171 -29
-56 -113 -77 -175 -45 -48 25 -76 95 -58 148 28 85 111 114 196 68z m-601
-311 c25 0 73 -53 83 -91 9 -33 8 -47 -9 -83 -23 -52 -61 -76 -122 -76 -35 0
-48 6 -80 39 -34 34 -39 44 -39 86 0 79 68 144 135 129 11 -2 25 -4 32 -4z
m2223 -300 c149 -99 419 -242 595 -315 50 -20 92 -38 94 -40 4 -5 -49 -147
-60 -159 -12 -14 -173 52 -363 148 -184 93 -448 255 -442 271 13 36 99 144
109 138 7 -3 37 -23 67 -43z m4060 -20 c22 -33 43 -66 46 -73 13 -36 -413
-277 -703 -397 -86 -36 -94 -38 -102 -21 -14 25 -62 154 -59 156 2 1 30 12 63
25 169 65 455 214 615 319 41 27 80 50 87 50 7 1 31 -26 53 -59z m-4931 -450
c392 -321 880 -597 1326 -751 55 -19 80 -32 79 -42 -1 -9 -82 -154 -179 -324
-98 -169 -245 -425 -328 -568 -82 -143 -156 -270 -163 -282 l-14 -22 -122 50
c-174 71 -484 224 -673 332 -300 171 -761 495 -752 528 2 9 118 214 257 455
357 620 424 734 430 734 3 0 65 -50 139 -110z m6169 -486 c296 -513 342 -597
330 -611 -47 -57 -466 -347 -698 -483 -301 -177 -822 -421 -847 -397 -16 16
-683 1175 -683 1186 0 5 21 17 48 26 501 182 924 417 1328 738 71 57 135 111
143 120 7 9 19 17 25 17 6 0 165 -268 354 -596z m-3515 375 c176 -10 496 -1
585 17 36 7 38 2 47 -103 l7 -80 -63 -7 c-146 -14 -586 -16 -714 -4 l-130 13
2 50 c1 28 5 70 8 93 6 43 7 44 38 38 18 -3 116 -11 220 -17z m384 -1083 c28
-31 33 -43 33 -87 0 -44 -4 -55 -33 -84 -44 -44 -98 -55 -146 -29 -48 27 -74
65 -74 112 0 120 140 176 220 88z"/>
</g>
</svg>
