<?xml version="1.0" standalone="no"?>
<!DOCTYPE svg PUBLIC "-//W3C//DTD SVG 20010904//EN"
 "http://www.w3.org/TR/2001/REC-SVG-20010904/DTD/svg10.dtd">
<svg version="1.0" xmlns="http://www.w3.org/2000/svg"
 width="1588.000000pt" height="1270.000000pt" viewBox="0 0 1588.000000 1270.000000"
 preserveAspectRatio="xMidYMid meet">

<g transform="translate(0.000000,1270.000000) scale(0.100000,-0.100000)"
fill="#000000" stroke="none">
<path d="M7700 12334 c-638 -35 -1139 -128 -1695 -318 -1280 -435 -2384 -1304
-3117 -2453 -959 -1502 -1193 -3375 -636 -5083 281 -859 758 -1647 1391 -2297
621 -636 1322 -1102 2137 -1418 1461 -568 3116 -533 4555 95 888 388 1685
1001 2295 1766 327 410 613 888 818 1369 524 1228 622 2613 277 3906 -502
1881 -1902 3409 -3735 4077 -498 181 -984 288 -1530 337 -161 15 -629 26 -760
19z m2650 -639 c254 -112 627 -320 865 -482 154 -105 395 -286 395 -297 0 -10
-47 -93 -245 -436 -59 -102 -182 -314 -272 -472 -91 -159 -169 -288 -172 -288
-3 0 -44 32 -91 71 -408 340 -855 599 -1358 784 -81 30 -102 42 -97 54 6 14
638 1116 671 1168 l14 22 92 -38 c51 -22 140 -60 198 -86z m-4175 -485 c289
-500 341 -596 327 -602 -9 -4 -80 -30 -157 -59 -442 -162 -956 -465 -1297
-762 -42 -37 -80 -67 -85 -67 -4 0 -80 125 -167 278 -88 152 -225 390 -305
527 -235 406 -224 385 -210 401 19 24 265 205 399 295 194 130 437 271 645
374 227 113 463 216 488 212 13 -1 122 -180 362 -597z m1509 374 c76 -56 65
-178 -19 -218 -64 -31 -130 -12 -165 47 -72 118 73 252 184 171z m645 8 c37
-20 71 -73 71 -110 0 -100 -112 -164 -197 -112 -86 52 -80 186 10 225 44 19
76 18 116 -3z m-660 -330 c46 -23 75 -80 66 -128 -9 -49 -61 -103 -105 -110
-77 -12 -150 50 -150 126 0 47 18 80 59 107 41 27 84 29 130 5z m669 -2 c34
-21 62 -72 62 -112 0 -60 -69 -128 -130 -128 -63 0 -130 68 -130 133 0 97 113
158 198 107z m-660 -330 c91 -55 70 -196 -34 -230 -30 -10 -43 -9 -81 5 -55
21 -83 63 -83 124 0 37 6 49 39 82 33 33 45 39 82 39 26 0 57 -8 77 -20z m659
0 c96 -58 73 -198 -38 -231 -76 -23 -159 44 -159 129 0 35 36 92 70 109 37 19
91 16 127 -7z m-832 -916 c4 -47 5 -87 3 -88 -1 -2 -75 -15 -163 -30 -190 -31
-344 -69 -531 -130 -76 -25 -140 -43 -144 -41 -14 9 -62 157 -54 165 13 12
273 94 389 124 55 13 161 36 235 50 169 32 177 33 221 35 l37 1 7 -86z m1025
71 c140 -23 230 -42 375 -80 137 -36 364 -110 376 -122 9 -10 -51 -163 -64
-163 -5 0 -85 24 -177 54 -166 54 -418 114 -578 137 l-84 12 6 46 c4 25 9 65
13 89 6 49 1 48 133 27z m-2676 -696 c26 -39 44 -75 39 -79 -4 -4 -62 -48
-128 -98 -141 -106 -305 -252 -428 -381 l-88 -93 -62 58 c-34 31 -64 61 -65
66 -5 12 272 287 378 375 118 99 283 222 296 223 6 0 32 -32 58 -71z m4357
-17 c54 -40 146 -115 205 -166 124 -106 357 -342 352 -354 -1 -5 -31 -34 -66
-64 l-62 -56 -123 125 c-141 145 -302 287 -434 382 -50 36 -90 71 -89 76 2 6
25 41 51 78 31 45 51 65 59 59 6 -4 54 -41 107 -80z m-6434 -126 c27 -30 33
-44 33 -82 0 -60 -35 -109 -89 -125 -48 -14 -80 -7 -120 26 -60 51 -62 132 -3
187 36 34 49 38 102 34 36 -3 51 -11 77 -40z m7944 -299 c62 -42 78 -116 36
-178 -26 -39 -89 -66 -129 -56 -41 11 -87 55 -99 97 -10 33 -9 44 10 83 36 75
116 98 182 54z m-7411 0 c65 -33 89 -126 47 -188 -84 -126 -286 -11 -221 126
31 65 111 94 174 62z m8312 -242 c29 -12 58 -69 58 -115 0 -36 -6 -48 -39 -81
-33 -33 -45 -39 -82 -39 -119 0 -178 125 -101 211 40 45 94 53 164 24z m-9217
1 c45 -19 75 -69 75 -124 0 -117 -163 -166 -232 -69 -46 64 -22 152 53 189 41
22 59 22 104 4z m570 -330 c94 -40 98 -183 6 -231 -86 -44 -191 20 -191 117 0
37 34 90 71 110 41 22 68 23 114 4z m710 -306 l73 -41 -68 -142 c-82 -171
-146 -339 -200 -523 -22 -76 -42 -139 -44 -141 -3 -3 -166 34 -171 39 -10 11
84 310 147 468 60 153 168 380 180 380 5 0 42 -18 83 -40z m6673 -102 c33 -73
76 -171 95 -218 74 -182 166 -486 150 -500 -9 -8 -133 -40 -155 -40 -8 0 -21
28 -32 73 -45 173 -138 425 -229 619 l-55 117 71 40 c40 22 77 41 83 41 6 0
38 -60 72 -132z m-7822 -735 c-11 -35 -46 -261 -63 -403 -25 -207 -25 -754 0
-965 17 -142 52 -360 63 -397 5 -17 -32 -18 -690 -18 -653 0 -695 1 -700 18
-11 37 -46 376 -57 557 -14 223 -6 649 15 867 16 158 33 299 41 336 l5 22 696
0 c658 0 695 -1 690 -17z m10211 -73 c38 -264 48 -426 48 -810 -1 -232 -6
-433 -13 -505 -16 -160 -42 -367 -47 -382 -3 -10 -151 -13 -695 -13 -651 0
-690 1 -690 18 0 9 9 67 19 127 48 273 55 376 56 745 0 371 -5 449 -50 728
-14 84 -25 159 -25 167 0 13 88 15 692 13 l693 -3 12 -85z m-9403 -872 c3 -40
8 -125 11 -188 7 -135 36 -351 69 -503 12 -59 20 -109 17 -111 -23 -13 -163
-38 -170 -30 -12 12 -56 240 -75 384 -19 139 -36 359 -36 452 l0 68 89 0 89 0
6 -72z m7376 -25 c0 -108 -15 -291 -36 -438 -18 -133 -64 -367 -73 -377 -9
-10 -171 33 -171 46 0 6 13 79 29 161 35 176 58 365 67 558 l7 137 88 0 89 0
0 -87z m-6935 -1641 c82 -157 272 -433 411 -597 l53 -62 -69 -62 -69 -61 -84
102 c-104 129 -183 236 -262 358 -83 127 -167 278 -163 291 3 8 133 86 148 88
3 1 18 -25 35 -57z m6426 11 c38 -21 69 -41 69 -46 0 -21 -93 -182 -193 -332
-74 -111 -159 -224 -249 -333 l-70 -83 -69 61 -69 62 58 67 c129 150 298 392
387 556 26 47 51 85 57 85 6 0 42 -17 79 -37z m-7211 -98 c48 -25 70 -62 70
-116 0 -42 -5 -55 -34 -87 -32 -34 -38 -37 -91 -37 -53 0 -59 3 -92 39 -33 36
-35 42 -31 92 5 59 25 89 73 110 40 17 70 17 105 -1z m8596 -294 c42 -19 74
-67 74 -111 0 -37 -32 -91 -64 -111 -114 -70 -246 65 -176 179 21 33 68 61
105 61 11 0 38 -8 61 -18z m-9159 -38 c44 -20 78 -88 68 -133 -8 -37 -39 -76
-75 -95 -107 -55 -221 67 -165 176 19 37 70 69 108 69 16 0 45 -8 64 -17z
m8716 -62 c64 -25 99 -102 74 -163 -44 -103 -171 -117 -227 -25 -64 104 40
231 153 188z m-8226 -85 c27 -29 33 -44 33 -78 0 -116 -122 -176 -209 -102
-37 31 -53 81 -40 127 18 68 64 100 133 94 42 -4 55 -10 83 -41z m7798 -76
c53 -50 57 -136 7 -183 -60 -57 -130 -57 -186 2 -53 55 -43 140 21 191 38 30
121 24 158 -10z m-7369 -35 c97 -74 42 -225 -81 -225 -97 0 -155 102 -110 190
32 63 131 81 191 35z m-602 -309 c97 -40 111 -173 24 -226 -62 -38 -134 -22
-175 39 -57 85 -2 190 105 200 7 0 27 -5 46 -13z m2291 -343 c118 -74 368
-203 510 -263 55 -23 102 -44 104 -46 7 -6 -52 -156 -64 -160 -26 -10 -386
158 -571 267 -49 29 -121 74 -161 101 l-72 48 51 75 52 75 25 -17 c14 -10 71
-46 126 -80z m3989 23 c25 -36 46 -69 46 -74 0 -5 -42 -37 -92 -70 -191 -124
-390 -229 -611 -321 l-98 -40 -10 27 c-41 105 -49 128 -49 138 0 5 37 25 83
44 191 77 461 220 602 317 33 23 65 42 72 42 6 1 32 -28 57 -63z m-4995 -395
c237 -210 642 -473 966 -626 135 -64 377 -164 454 -186 23 -7 45 -18 48 -25 2
-6 -80 -157 -183 -335 -103 -178 -254 -441 -336 -584 -83 -143 -154 -264 -159
-270 -10 -11 -39 -1 -189 62 -291 123 -639 311 -925 500 -163 107 -410 288
-434 317 -11 13 19 70 214 408 125 216 280 484 344 595 64 112 120 203 125
203 4 0 38 -26 75 -59z m5902 37 c6 -13 158 -277 336 -586 179 -310 327 -571
329 -580 8 -30 -366 -298 -656 -473 -311 -186 -871 -453 -896 -426 -6 7 -109
183 -229 392 -120 209 -272 472 -337 584 -65 112 -118 207 -118 212 0 4 21 15
48 24 539 195 990 452 1412 804 47 39 88 71 92 71 4 0 13 -10 19 -22z m-3192
-199 c174 -11 399 -6 606 14 17 2 21 -8 30 -86 6 -49 9 -90 6 -91 -4 -2 -84
-9 -180 -16 -218 -16 -702 -2 -725 20 -2 3 1 45 7 93 10 88 11 89 36 83 14 -2
113 -10 220 -17z m357 -1055 c22 -11 40 -31 55 -61 19 -39 20 -50 10 -83 -12
-42 -58 -86 -99 -97 -72 -18 -152 52 -152 133 0 94 96 150 186 108z"/>
</g>
</svg>
