<?xml version="1.0" standalone="no"?>
<!DOCTYPE svg PUBLIC "-//W3C//DTD SVG 20010904//EN"
 "http://www.w3.org/TR/2001/REC-SVG-20010904/DTD/svg10.dtd">
<svg version="1.0" xmlns="http://www.w3.org/2000/svg"
 width="1588.000000pt" height="1270.000000pt" viewBox="0 0 1588.000000 1270.000000"
 preserveAspectRatio="xMidYMid meet">

<g transform="translate(0.000000,1270.000000) scale(0.100000,-0.100000)"
fill="#000000" stroke="none">
<path d="M5630 11737 c-310 -136 -617 -300 -884 -474 -223 -146 -481 -337
-473 -351 12 -21 589 -1022 635 -1100 l54 -94 42 40 c94 90 358 287 528 393
272 171 583 324 875 430 51 19 93 38 93 42 0 7 -130 234 -622 1087 -31 52 -61
96 -69 97 -8 1 -88 -31 -179 -70z"/>
<path d="M10022 11743 c-409 -705 -642 -1111 -642 -1119 0 -5 42 -24 93 -43
487 -176 996 -471 1364 -790 l82 -71 39 68 c22 37 89 153 149 257 89 153 485
841 499 866 7 13 -221 185 -431 326 -262 175 -633 375 -930 501 -200 85 -177
84 -223 5z"/>
<path d="M7525 11567 c-38 -38 -50 -74 -40 -114 3 -14 21 -41 40 -60 27 -27
41 -33 74 -33 103 0 158 84 116 174 -20 41 -63 66 -115 66 -34 0 -48 -6 -75
-33z"/>
<path d="M8214 11590 c-40 -16 -64 -59 -64 -112 0 -43 4 -54 34 -84 29 -29 41
-34 80 -34 75 0 126 49 126 120 0 88 -91 145 -176 110z"/>
<path d="M7532 11245 c-43 -36 -58 -77 -43 -125 16 -55 61 -90 117 -90 89 0
151 99 110 178 -33 64 -129 83 -184 37z"/>
<path d="M8184 11236 c-29 -29 -34 -41 -34 -83 0 -55 17 -86 60 -108 109 -57
222 56 165 165 -22 43 -53 60 -108 60 -42 0 -54 -5 -83 -34z"/>
<path d="M7555 10931 c-63 -29 -88 -91 -61 -155 47 -113 217 -90 233 31 13 98
-81 167 -172 124z"/>
<path d="M8224 10936 c-48 -21 -74 -61 -74 -115 0 -53 18 -84 60 -106 91 -47
191 24 177 124 -6 49 -28 78 -74 97 -39 17 -49 17 -89 0z"/>
<path d="M7325 10079 c-66 -11 -185 -35 -265 -54 -141 -34 -411 -117 -439
-134 -13 -9 -12 -15 38 -143 l10 -26 123 40 c217 72 598 158 696 158 26 0 26
4 6 143 -7 44 1 43 -169 16z"/>
<path d="M8396 10043 c-4 -32 -9 -72 -12 -89 l-6 -31 59 -7 c171 -21 435 -83
661 -158 68 -22 124 -39 126 -37 8 10 56 141 56 152 0 23 -350 131 -575 177
-80 16 -280 50 -299 50 -2 0 -7 -26 -10 -57z"/>
<path d="M5749 9428 c-167 -119 -285 -217 -439 -365 -60 -58 -128 -127 -150
-153 l-40 -48 57 -56 c32 -31 63 -56 70 -56 6 0 37 28 68 63 115 128 343 328
520 457 33 24 61 44 63 45 4 3 -87 133 -97 139 -4 3 -28 -9 -52 -26z"/>
<path d="M10038 9381 l-47 -69 114 -87 c154 -117 309 -254 431 -383 l101 -106
39 31 c21 17 52 45 68 62 l29 30 -154 153 c-85 84 -192 185 -239 224 -113 94
-272 214 -285 213 -5 0 -31 -31 -57 -68z"/>
<path d="M3625 9271 c-56 -23 -82 -109 -51 -169 31 -60 112 -80 174 -42 37 23
52 54 52 112 0 32 -7 47 -34 74 -29 29 -41 34 -77 33 -24 0 -53 -4 -64 -8z"/>
<path d="M4213 8948 c-46 -12 -83 -61 -83 -109 0 -105 98 -162 185 -109 41 25
59 68 52 122 -10 72 -79 116 -154 96z"/>
<path d="M11584 8941 c-30 -19 -54 -64 -54 -103 0 -70 68 -125 143 -115 102
14 139 138 61 207 -42 36 -102 41 -150 11z"/>
<path d="M12514 8714 c-38 -9 -76 -59 -81 -106 -11 -114 124 -179 205 -98 72
72 32 193 -68 204 -19 2 -45 2 -56 0z"/>
<path d="M3288 8694 c-61 -32 -78 -129 -32 -183 70 -84 214 -37 214 70 0 22
-7 53 -15 69 -28 55 -109 76 -167 44z"/>
<path d="M3865 8371 c-50 -21 -80 -88 -64 -145 37 -133 239 -104 239 34 0 87
-91 145 -175 111z"/>
<path d="M4550 8023 c-57 -117 -125 -276 -167 -393 -35 -97 -115 -361 -111
-366 5 -5 170 -45 173 -42 1 2 10 32 19 68 54 202 128 403 218 590 64 136 68
146 51 158 -17 13 -129 72 -136 72 -2 0 -23 -39 -47 -87z"/>
<path d="M11207 8059 l-77 -39 51 -101 c85 -171 221 -539 244 -663 9 -46 15
-49 65 -36 134 34 122 28 115 63 -15 67 -97 321 -141 434 -42 109 -169 384
-176 383 -2 -1 -38 -19 -81 -41z"/>
<path d="M2143 7228 c0 -7 -7 -71 -16 -143 -36 -292 -41 -369 -41 -725 -1
-361 5 -468 41 -762 l17 -138 691 0 691 0 -22 133 c-40 235 -55 397 -61 652
-7 319 19 659 71 928 l13 67 -692 0 c-547 0 -692 -3 -692 -12z"/>
<path d="M12376 7109 c49 -289 59 -415 59 -764 -1 -347 -10 -463 -58 -753
l-23 -132 690 2 691 3 12 85 c45 320 63 775 44 1115 -7 116 -14 226 -16 245
-2 19 -11 94 -20 165 -9 72 -18 138 -21 148 -5 16 -47 17 -693 17 l-687 0 22
-131z"/>
<path d="M4164 6198 c4 -90 16 -231 26 -315 22 -167 67 -414 79 -426 7 -7 150
20 163 32 4 3 -4 60 -17 126 -38 182 -65 402 -72 582 l-6 163 -90 0 -90 0 7
-162z"/>
<path d="M11537 6191 c-8 -180 -33 -387 -72 -575 -14 -71 -24 -130 -23 -131 2
-2 39 -12 83 -22 56 -14 82 -16 86 -9 13 22 59 276 78 426 11 85 23 226 27
313 l7 157 -90 0 -90 0 -6 -159z"/>
<path d="M4663 4631 l-72 -37 55 -99 c115 -204 248 -392 440 -623 24 -29 28
-28 108 46 42 39 46 46 34 61 -7 10 -53 67 -101 127 -99 121 -258 356 -327
482 -25 45 -49 82 -55 81 -5 0 -42 -17 -82 -38z"/>
<path d="M11080 4587 c-94 -172 -345 -526 -419 -591 -11 -11 -21 -24 -21 -30
0 -6 29 -37 64 -68 l64 -57 39 47 c105 124 197 245 273 357 55 83 200 327 200
340 0 8 -138 86 -152 85 -1 0 -23 -38 -48 -83z"/>
<path d="M3873 4520 c-72 -48 -68 -166 7 -205 97 -50 208 31 180 134 -14 54
-50 83 -107 88 -37 3 -56 -1 -80 -17z"/>
<path d="M12472 4230 c-37 -23 -52 -54 -52 -112 0 -32 7 -47 34 -74 30 -30 40
-34 85 -34 69 0 111 36 118 101 12 109 -92 176 -185 119z"/>
<path d="M3309 4195 c-15 -8 -34 -31 -44 -51 -25 -52 -15 -101 30 -141 64 -60
157 -38 192 44 15 36 10 87 -10 113 -37 49 -114 64 -168 35z"/>
<path d="M12024 4106 c-30 -30 -34 -40 -34 -86 0 -46 4 -56 34 -86 28 -28 42
-34 75 -34 78 0 131 49 131 120 0 71 -51 120 -126 120 -39 0 -51 -5 -80 -34z"/>
<path d="M3794 4088 c-97 -25 -114 -177 -24 -223 77 -40 171 7 180 90 10 90
-67 157 -156 133z"/>
<path d="M11594 3996 c-95 -41 -100 -184 -9 -222 44 -18 69 -18 111 2 46 22
68 65 61 121 -5 50 -28 80 -74 99 -39 17 -49 17 -89 0z"/>
<path d="M4225 3960 c-67 -27 -94 -119 -53 -180 63 -92 203 -64 224 44 17 92
-84 172 -171 136z"/>
<path d="M3654 3631 c-53 -23 -83 -97 -64 -156 35 -106 199 -103 231 5 14 48
6 81 -29 121 -21 24 -38 32 -72 35 -25 2 -55 0 -66 -5z"/>
<path d="M5851 3327 c-24 -34 -46 -68 -48 -77 -4 -17 32 -43 202 -145 157 -95
547 -285 584 -285 8 0 75 160 69 165 -2 1 -30 12 -63 25 -176 69 -481 229
-645 340 l-55 38 -44 -61z"/>
<path d="M9890 3325 c-174 -113 -436 -249 -605 -315 -33 -13 -62 -25 -64 -26
-6 -5 53 -164 62 -164 17 0 239 96 350 151 118 59 265 144 384 221 43 28 62
46 58 56 -8 21 -87 132 -94 132 -3 0 -44 -25 -91 -55z"/>
<path d="M4922 2912 c-86 -147 -226 -390 -377 -652 -88 -151 -185 -320 -217
-375 l-58 -100 33 -28 c130 -114 493 -360 733 -496 295 -168 764 -385 785
-364 13 13 671 1156 676 1174 3 12 -9 21 -47 33 -210 69 -596 249 -810 378
-214 130 -442 292 -599 429 l-80 69 -39 -68z"/>
<path d="M10837 2910 c-162 -142 -403 -313 -634 -449 -212 -125 -569 -289
-770 -355 -29 -10 -53 -23 -53 -29 0 -6 36 -72 79 -147 43 -74 172 -297 286
-495 335 -581 313 -547 338 -539 65 21 305 128 467 208 265 133 460 247 690
404 123 84 356 257 364 271 3 4 -30 67 -73 141 -315 548 -604 1046 -609 1051
-4 4 -42 -24 -85 -61z"/>
<path d="M7493 2688 c-6 -45 -9 -85 -7 -87 7 -8 167 -21 344 -27 168 -6 490 7
544 23 16 4 17 12 11 72 -11 111 1 103 -138 94 -158 -10 -459 -10 -618 0
l-126 9 -10 -84z"/>
<path d="M7979 1695 c-28 -15 -59 -70 -59 -105 0 -61 61 -120 125 -120 64 0
125 59 125 120 0 36 -31 90 -61 105 -35 19 -96 19 -130 0z"/>
</g>
</svg>
